Coordinates
version=1
nRows=26
nColumns=24
inDegrees=yes

Units are S.I. units (second, meters, Newtons, ...)
Angles are in degrees.

endheader
time	pelvis_tilt	pelvis_list	pelvis_rotation	pelvis_tx	pelvis_ty	pelvis_tz	hip_flexion_r	hip_adduction_r	hip_rotation_r	knee_angle_r	ankle_angle_r	subtalar_angle_r	mtp_angle_r	hip_flexion_l	hip_adduction_l	hip_rotation_l	knee_angle_l	ankle_angle_l	subtalar_angle_l	mtp_angle_l	lumbar_extension	lumbar_bending	lumbar_rotation
      3.37000000	    -11.84486417	      3.20026569	      2.23422873	     -2.02052512	     -0.01239665	     -0.74233465	     26.36022916	     -6.89443665	     -4.15464466	    -68.43683703	    -17.64578108	    -17.85958484	      4.98514467	     23.65285534	      6.45393803	    -11.99778543	    -19.78077680	      3.44360240	     -8.31982473	      4.77893382	      8.11323594	     -4.83437218	     -3.70931023
      3.37500000	    -11.84562158	      3.13909080	      2.32942263	     -2.01522358	     -0.01150580	     -0.74327898	     27.10632795	     -6.79355924	     -4.08020813	    -68.66287237	    -16.59354290	    -17.50931303	      5.34818392	     23.03038023	      6.52519360	    -11.89624059	    -19.28601702	      3.56699854	     -8.20766805	      4.86754052	      8.09796999	     -4.75652246	     -3.86742359
      3.38000000	    -11.82662094	      3.06631894	      2.43571021	     -2.00990519	     -0.01058156	     -0.74420419	     27.80052603	     -6.68336471	     -4.05634035	    -68.78271829	    -15.70552182	    -17.38823517	      5.67363315	     22.37620201	      6.58572780	    -11.77031672	    -18.77359680	      3.67492946	     -8.09610730	      4.92720915	      8.06663460	     -4.67056321	     -4.03033864
      3.38500000	    -11.78876598	      2.99730660	      2.54755228	     -2.00455856	     -0.00964812	     -0.74512493	     28.44468174	     -6.57954425	     -4.04540584	    -68.81213178	    -14.88187315	    -17.31840255	      5.97880471	     21.69136363	      6.64770214	    -11.65513208	    -18.24462482	      3.77426024	     -7.97100161	      4.97570211	      8.02074399	     -4.58689285	     -4.19924519
      3.39000000	    -11.72287397	      2.93243977	      2.65895981	     -1.99918475	     -0.00868274	     -0.74602796	     29.02841953	     -6.47929677	     -4.04251254	    -68.74981284	    -14.11670648	    -17.28834953	      6.26493193	     20.96558108	      6.70789868	    -11.55673942	    -17.69710152	      3.84183988	     -7.83399612	      5.01946655	      7.95196484	     -4.50868008	     -4.37032174
      3.39500000	    -11.64198269	      2.87473360	      2.77346781	     -1.99379693	     -0.00774418	     -0.74694447	     29.57397493	     -6.39384091	     -4.05803060	    -68.61172408	    -13.42286745	    -17.33926184	      6.48103024	     20.21632186	      6.77477294	    -11.46141709	    -17.13836443	      3.93098931	     -7.68720898	      5.07220512	      7.86847952	     -4.43211607	     -4.54200840
      3.40000000	    -11.54753463	      2.82192984	      2.88971661	     -1.98839388	     -0.00682867	     -0.74786071	     30.08073200	     -6.31937491	     -4.08860098	    -68.39607021	    -12.77520095	    -17.44186575	      6.62375277	     19.44689952	      6.84323936	    -11.37229319	    -16.57136046	      4.02752908	     -7.52599915	      5.13246899	      7.77385205	     -4.35808322	     -4.71363755
      3.40500000	    -11.53170005	      2.76309413	      2.99144559	     -1.98299416	     -0.00601609	     -0.74870320	     30.66172296	     -6.22434722	     -4.11028569	    -68.10903587	    -12.20809416	    -17.65765537	      6.68377751	     18.76852982	      6.89565322	    -11.26951618	    -16.01422126	      4.09996815	     -7.35514198	      5.15900141	      7.77131261	     -4.28592022	     -4.83851567
      3.41000000	    -11.29436135	      2.69255651	      3.11211729	     -1.97750726	     -0.00496253	     -0.74963983	     30.92733985	     -6.13619569	     -4.17416293	    -67.69403157	    -11.57970505	    -17.75278500	      6.69156562	     17.82169393	      6.93429737	    -11.22222480	    -15.40875556	      4.18169820	     -7.16587406	      5.27246616	      7.53559341	     -4.17796812	     -5.04961923
      3.41500000	    -11.17032857	      2.64544893	      3.23953651	     -1.97208338	     -0.00410548	     -0.75051051	     31.31711496	     -6.07769293	     -4.24625939	    -67.23454389	    -11.01061979	    -17.98465755	      6.63840004	     17.02006502	      6.99257203	    -11.16862209	    -14.83781552	      4.24594574	     -6.95816236	      5.36919056	      7.41409398	     -4.11271637	     -5.25186831
      3.42000000	    -11.02302937	      2.57539275	      3.35622046	     -1.96664259	     -0.00324744	     -0.75138829	     31.64794486	     -5.99147774	     -4.32176902	    -66.68090436	    -10.46401844	    -18.21479993	      6.52351464	     16.18901158	      7.02119034	    -11.10452620	    -14.25980892	      4.32138558	     -6.74675569	      5.48037591	      7.27349971	     -4.01172772	     -5.43179412
      3.42500000	    -10.88797779	      2.50707974	      3.47812687	     -1.96122168	     -0.00245048	     -0.75225551	     31.96692857	     -5.91429300	     -4.40986983	    -66.05132239	     -9.93382339	    -18.46891260	      6.36636682	     15.37970071	      7.04771489	    -11.04818631	    -13.69314995	      4.39206234	     -6.52616879	      5.59261968	      7.14396418	     -3.91405936	     -5.62260087
      3.43000000	    -10.75305707	      2.42403100	      3.58919455	     -1.95579041	     -0.00168606	     -0.75311332	     32.25744415	     -5.82039757	     -4.50121932	    -65.33772805	     -9.42822450	    -18.71277997	      6.12688503	     14.57059481	      7.05180468	    -10.99872283	    -13.12397442	      4.46226625	     -6.29916433	      5.73118451	      7.01935410	     -3.79497167	     -5.80105449
      3.43500000	    -10.65644128	      2.36551052	      3.72952177	     -1.95044021	     -0.00107110	     -0.75397594	     32.57279729	     -5.77956852	     -4.62180503	    -64.56927198	     -8.91873751	    -18.99102342	      5.95212509	     13.82586852	      7.08633811	    -10.92738338	    -12.59230770	      4.55608434	     -6.07087610	      5.82434601	      6.91951012	     -3.71484867	     -6.01212200
      3.44000000	    -10.53354165	      2.27163576	      3.85559205	     -1.94507355	     -0.00043083	     -0.75484470	     32.81770627	     -5.69416355	     -4.74286059	    -63.69279808	     -8.44547361	    -19.25225112	      5.72271967	     13.05325413	      7.07473446	    -10.85709483	    -12.06054839	      4.64658229	     -5.82999279	      5.91674061	      6.79890822	     -3.57939782	     -6.20954767
      3.44500000	    -10.41759478	      2.18560968	      3.98965149	     -1.93975135	      0.00015723	     -0.75569065	     33.04366405	     -5.62463740	     -4.87497727	    -62.74302178	     -7.97739120	    -19.50465307	      5.39951520	     12.30752989	      7.06366726	    -10.84675474	    -11.55322564	      4.70279415	     -5.57190353	      6.02091272	      6.67607905	     -3.45768107	     -6.43883591
      3.45000000	    -10.30777907	      2.13313925	      4.07279012	     -1.93443214	      0.00063225	     -0.75644367	     33.27418684	     -5.56327235	     -4.96517488	    -61.76171901	     -7.47767111	    -19.70330481	      4.71136190	     11.55927731	      7.07135046	    -10.88169769	    -11.02914229	      4.78148726	     -5.28818357	      6.24747487	      6.56106490	     -3.36701399	     -6.58147025
      3.45500000	    -10.32006309	      2.03334307	      4.26128291	     -1.92917077	      0.00091225	     -0.75736861	     33.59044792	     -5.54372174	     -5.16592163	    -60.67985004	     -7.07923771	    -19.92447261	      4.53961129	     10.98347013	      7.06297647	    -10.75845657	    -10.57685076	      4.89500710	     -5.06271935	      6.30357687	      6.57092254	     -3.24337050	     -6.85580195
      3.46000000	    -10.43413412	      2.05743824	      4.33421402	     -1.92398204	      0.00093965	     -0.75818251	     34.05302381	     -5.59060910	     -5.18509952	    -59.59283242	     -6.68794936	    -20.12280553	      4.49190321	     10.52260608	      7.17753483	    -10.79712624	    -10.12382174	      4.92023611	     -4.95155201	      6.28986944	      6.68036736	     -3.22579197	     -6.98716348
      3.46500000	    -10.13818434	      1.91883699	      4.51939941	     -1.91867028	      0.00152623	     -0.75903987	     33.92554888	     -5.51633535	     -5.48458820	    -58.29871296	     -6.35508631	    -20.38936929	      3.67839021	      9.59463345	      7.08012970	    -10.78650826	     -9.64340556	      5.09913216	     -4.49191323	      6.45850388	      6.35787801	     -3.04271701	     -7.28851703
      3.47000000	    -10.15072811	      1.84073709	      4.71913529	     -1.91346353	      0.00161190	     -0.75991221	     34.15554504	     -5.53584733	     -5.73040803	    -57.01039654	     -6.00865560	    -20.59363784	      3.06677487	      9.05726176	      7.07397738	    -10.73289994	     -9.25565043	      5.21517997	     -4.20124346	      6.59953749	      6.35311667	     -2.94324286	     -7.57742347
      3.47500000	    -10.19102648	      1.75794534	      4.84071976	     -1.90821283	      0.00157369	     -0.76074537	     34.39829714	     -5.51148291	     -5.89905053	    -55.64533847	     -5.71805459	    -20.76068851	      2.64366057	      8.54042344	      7.05876990	    -10.69678895	     -8.85366768	      5.35566536	     -4.00405038	      6.68812727	      6.39348206	     -2.81358956	     -7.76258390
      3.48000000	    -10.13127795	      1.77774213	      4.94276021	     -1.90298613	      0.00155091	     -0.76143354	     34.53255084	     -5.56873902	     -6.06295085	    -54.30152402	     -5.30334731	    -20.79773567	      1.15901067	      7.90587401	      7.12262268	    -10.83608753	     -8.43466766	      5.44603245	     -3.63391544	      7.01099173	      6.30960687	     -2.80119044	     -7.93846071
      3.48500000	    -10.24991550	      1.73051841	      5.13662342	     -1.89778603	      0.00128734	     -0.76233288	     34.79927326	     -5.65141160	     -6.33430195	    -52.80462140	     -5.16787443	    -21.02957400	      0.85301120	      7.50702589	      7.15887708	    -10.74659045	     -8.09399392	      5.56120035	     -3.46894121	      7.07345639	      6.41850168	     -2.72694860	     -8.20733723
      3.49000000	    -10.17672694	      1.73309888	      5.23702368	     -1.89251581	      0.00114536	     -0.76304733	     34.83962638	     -5.70595753	     -6.55526200	    -51.28674842	     -4.89720429	    -21.09216633	     -0.40414258	      6.86688142	      7.20440461	    -10.84739680	     -7.70055857	      5.69088165	     -3.15317849	      7.30595413	      6.32482171	     -2.68277794	     -8.37294599
      3.49500000	    -10.34115241	      1.73969639	      5.44388633	     -1.88733043	      0.00066537	     -0.76389035	     35.10979154	     -5.86064921	     -6.86256638	    -49.69203215	     -4.86693151	    -21.32450011	     -0.80259732	      6.53749393	      7.29390497	    -10.76234813	     -7.40598191	      5.80379179	     -2.98640318	      7.37413282	      6.47500762	     -2.67761695	     -8.65513327
